<mxfile host="app.diagrams.net" modified="2022-07-28T06:12:55.820Z" agent="5.0 (Macintosh; Intel Mac OS X 10_15_7) AppleWebKit/537.36 (KHTML, like Gecko) Chrome/103.0.0.0 Safari/537.36" etag="TFFV_texo9KuS3FUxPOn" version="20.0.4" type="github">
  <diagram id="Gy4nKqwPEICqkQXcX3Ys" name="第 1 页">
    <mxGraphModel dx="1426" dy="794" grid="1" gridSize="10" guides="1" tooltips="1" connect="1" arrows="1" fold="1" page="1" pageScale="1" pageWidth="827" pageHeight="1169" math="0" shadow="0">
      <root>
        <mxCell id="0" />
        <mxCell id="1" parent="0" />
        <mxCell id="jC9lOExU4FJecGhKxXw0-3" value="" style="edgeStyle=orthogonalEdgeStyle;rounded=0;orthogonalLoop=1;jettySize=auto;html=1;" edge="1" parent="1" source="jC9lOExU4FJecGhKxXw0-1" target="jC9lOExU4FJecGhKxXw0-2">
          <mxGeometry relative="1" as="geometry" />
        </mxCell>
        <mxCell id="jC9lOExU4FJecGhKxXw0-4" value="审批通过" style="edgeLabel;html=1;align=center;verticalAlign=middle;resizable=0;points=[];" vertex="1" connectable="0" parent="jC9lOExU4FJecGhKxXw0-3">
          <mxGeometry x="-0.2286" y="-1" relative="1" as="geometry">
            <mxPoint as="offset" />
          </mxGeometry>
        </mxCell>
        <mxCell id="jC9lOExU4FJecGhKxXw0-1" value="供应商官网｜邀请入驻" style="rounded=1;whiteSpace=wrap;html=1;" vertex="1" parent="1">
          <mxGeometry x="250" y="140" width="160" height="40" as="geometry" />
        </mxCell>
        <mxCell id="jC9lOExU4FJecGhKxXw0-6" value="" style="edgeStyle=orthogonalEdgeStyle;rounded=0;orthogonalLoop=1;jettySize=auto;html=1;" edge="1" parent="1" source="jC9lOExU4FJecGhKxXw0-2" target="jC9lOExU4FJecGhKxXw0-5">
          <mxGeometry relative="1" as="geometry" />
        </mxCell>
        <mxCell id="jC9lOExU4FJecGhKxXw0-2" value="资质" style="whiteSpace=wrap;html=1;rounded=1;" vertex="1" parent="1">
          <mxGeometry x="270" y="230" width="120" height="30" as="geometry" />
        </mxCell>
        <mxCell id="jC9lOExU4FJecGhKxXw0-20" value="" style="edgeStyle=orthogonalEdgeStyle;rounded=0;orthogonalLoop=1;jettySize=auto;html=1;" edge="1" parent="1" source="jC9lOExU4FJecGhKxXw0-5" target="jC9lOExU4FJecGhKxXw0-19">
          <mxGeometry relative="1" as="geometry" />
        </mxCell>
        <mxCell id="jC9lOExU4FJecGhKxXw0-5" value="供应商" style="whiteSpace=wrap;html=1;rounded=1;" vertex="1" parent="1">
          <mxGeometry x="255" y="290" width="150" height="30" as="geometry" />
        </mxCell>
        <mxCell id="jC9lOExU4FJecGhKxXw0-16" value="&lt;p style=&quot;text-align: left; margin: 10px 0px 0px 10px;&quot;&gt;&lt;span style=&quot;&quot;&gt;必备：绑定资质、服务区域、订货信息、结算信息、质保金&lt;/span&gt;&lt;br&gt;&lt;/p&gt;" style="shape=note;html=1;size=15;spacingLeft=5;align=left;html=1;overflow=fill;whiteSpace=wrap;align=center;strokeWidth=1;" vertex="1" parent="1">
          <mxGeometry x="440" y="240" width="120" height="80" as="geometry" />
        </mxCell>
        <mxCell id="jC9lOExU4FJecGhKxXw0-18" value="" style="rounded=0;html=1;labelBackgroundColor=none;endArrow=none;dashed=1;" edge="1" source="jC9lOExU4FJecGhKxXw0-16" parent="1">
          <mxGeometry relative="1" as="geometry">
            <mxPoint x="410" y="300" as="targetPoint" />
          </mxGeometry>
        </mxCell>
        <mxCell id="jC9lOExU4FJecGhKxXw0-26" value="" style="edgeStyle=orthogonalEdgeStyle;rounded=0;orthogonalLoop=1;jettySize=auto;html=1;" edge="1" parent="1" source="jC9lOExU4FJecGhKxXw0-19" target="jC9lOExU4FJecGhKxXw0-25">
          <mxGeometry relative="1" as="geometry" />
        </mxCell>
        <mxCell id="jC9lOExU4FJecGhKxXw0-19" value="合同" style="whiteSpace=wrap;html=1;rounded=1;" vertex="1" parent="1">
          <mxGeometry x="270" y="360" width="120" height="40" as="geometry" />
        </mxCell>
        <mxCell id="jC9lOExU4FJecGhKxXw0-21" value="&lt;p style=&quot;margin:0px;margin-top:10px;margin-left:10px;text-align:left;&quot;&gt;框架合同：预签、意向合同&lt;/p&gt;&lt;p style=&quot;margin:0px;margin-top:10px;margin-left:10px;text-align:left;&quot;&gt;采购合同：正式下单合同，具有法律效益&lt;/p&gt;" style="shape=note;html=1;size=15;spacingLeft=5;align=left;html=1;overflow=fill;whiteSpace=wrap;align=center;" vertex="1" parent="1">
          <mxGeometry x="90" y="300" width="150" height="90" as="geometry" />
        </mxCell>
        <mxCell id="jC9lOExU4FJecGhKxXw0-23" value="" style="rounded=0;html=1;labelBackgroundColor=none;endArrow=none;dashed=1;entryX=0;entryY=0.5;entryDx=0;entryDy=0;" edge="1" source="jC9lOExU4FJecGhKxXw0-21" target="jC9lOExU4FJecGhKxXw0-19" parent="1">
          <mxGeometry relative="1" as="geometry">
            <mxPoint x="113.75" y="320" as="targetPoint" />
          </mxGeometry>
        </mxCell>
        <mxCell id="jC9lOExU4FJecGhKxXw0-27" value="" style="edgeStyle=orthogonalEdgeStyle;rounded=0;orthogonalLoop=1;jettySize=auto;html=1;" edge="1" parent="1" source="jC9lOExU4FJecGhKxXw0-24" target="jC9lOExU4FJecGhKxXw0-1">
          <mxGeometry relative="1" as="geometry" />
        </mxCell>
        <mxCell id="jC9lOExU4FJecGhKxXw0-24" value="开始" style="rounded=1;whiteSpace=wrap;html=1;" vertex="1" parent="1">
          <mxGeometry x="290" y="80" width="80" height="30" as="geometry" />
        </mxCell>
        <mxCell id="jC9lOExU4FJecGhKxXw0-25" value="结束" style="rounded=1;whiteSpace=wrap;html=1;" vertex="1" parent="1">
          <mxGeometry x="285" y="430" width="90" height="30" as="geometry" />
        </mxCell>
      </root>
    </mxGraphModel>
  </diagram>
</mxfile>
